HIERARCHY
ROOT Hips
{
  OFFSET 0.0 0.0 0.0
  CHANNELS 6 XPOSITION YPOSITION ZPOSITION ZROTATION XROTATION YROTATION 
  JOINT LeftUpLeg
  {
    OFFSET 0.089458 -0.0866707 0.00101652
    CHANNELS 3 ZROTATION XROTATION YROTATION 
    JOINT LeftLeg
    {
      OFFSET 0.0 -0.444227 0.013727
      CHANNELS 3 ZROTATION XROTATION YROTATION 
      JOINT LeftFoot
      {
        OFFSET -0.00253549 -0.420924 -0.0146059
        CHANNELS 3 ZROTATION XROTATION YROTATION 
        End Site
        {
          OFFSET -0.0004 -0.0441509 0.084991
        }
      }
    }
  }
  JOINT Spine
  {
    OFFSET 0.0 0.118905 0.0
    CHANNELS 3 ZROTATION XROTATION YROTATION 
    JOINT Spine1
    {
      OFFSET 0.0 0.256574 0.00127663
      CHANNELS 3 ZROTATION XROTATION YROTATION 
      End Site
      {
        OFFSET -0.0029 0.2150836 0.02525291
      }
      JOINT RightArm
      {
        OFFSET -0.162727 -0.05365632 0.00102123
        CHANNELS 3 ZROTATION XROTATION YROTATION 
        JOINT RightForeArm
        {
          OFFSET -0.26364 0.00099144 -0.0142434
          CHANNELS 3 ZROTATION XROTATION YROTATION 
          End Site
          {
            OFFSET -0.220324 0.00085362 0.0102216
          }
        }
      }
      JOINT LeftArm
      {
        OFFSET 0.162727 -0.0536563199 0.00102123
        CHANNELS 3 ZROTATION XROTATION YROTATION 
        JOINT LeftForeArm
        {
          OFFSET 0.262597 0.00099144 -0.0142434
          CHANNELS 3 ZROTATION XROTATION YROTATION 
          End Site
          {
            OFFSET 0.220902 0.00085362 0.0102216
          }
        }
      }
    }
  }
  JOINT RightUpLeg
  {
    OFFSET -0.089458 -0.0866707 0.00101652
    CHANNELS 3 ZROTATION XROTATION YROTATION 
    JOINT RightLeg
    {
      OFFSET 0.0 -0.444227 0.013727
      CHANNELS 3 ZROTATION XROTATION YROTATION 
      JOINT RightFoot
      {
        OFFSET 0.00253549 -0.420924 -0.0146059
        CHANNELS 3 ZROTATION XROTATION YROTATION 
        End Site
        {
          OFFSET 0.0004 -0.0441509 0.084991
        }
      }
    }
  }
}
MOTION
Frames: 11
Frame Time: 0.033333
1.87343 1.0296830376 0.0259073 -3.59215016377 -0.245741988766 -93.5896972152 -1.53840000559 2.1959999467 2.23343002369 -0.287383010773 8.43790897893 23.3559001688 -1.70248003919 -11.4163000514 -0.00547124999697 1.24498991316 6.80776010944 0.615783975555 -2.99673994881 -1.25164998793 1.25362007062 78.4776851105 -13.1395157979 3.40978795491 7.95901026527 35.0784991997 9.64732032998 -71.0956986179 -6.35512347314 -1.56377789361 -5.93677011761 34.5605010682 -13.4284993941 -0.405595015729 2.58187980816 -3.97283033027 0.229134997449 10.0017994639 -11.1258001532 2.52806005193 -13.4594999152 -0.0700316037569 
1.87323 1.0296830376 0.0259073 -3.59121997738 -0.233060008344 -93.5905031776 -1.52409001222 2.21144001621 2.25297994608 -0.29624200625 8.43491991739 23.3497000645 -1.66136998435 -11.4260996653 -0.00547144009501 1.2815499948 6.73448029049 0.615690007093 -3.03144008456 -1.15614003767 1.25357001814 78.5051151502 -13.096833092 3.44652882311 8.00241953254 34.9326985666 9.62915031924 -71.1050081657 -6.47481869637 -1.6257027365 -5.99388970898 34.6774987936 -13.3330005429 -0.40411102373 2.59389005548 -3.98712975818 0.246756992229 9.99418038792 -11.1252998418 2.51985016455 -13.4448995321 -0.0700273015381 
1.8729 1.0296830376 0.0259193 -3.58788983327 -0.220315008755 -93.5905988002 -1.50671998739 2.24184993938 2.27814001511 -0.311364018392 8.41241017521 23.329299997 -1.62761006683 -11.44079994 -0.00547171982261 1.30365003235 6.63676973866 0.616245973819 -3.03779984445 -1.03507995055 1.25351996566 78.5410556057 -12.9789611024 3.48897289928 8.12130068259 34.4991010826 9.58450051886 -71.102890807 -6.48165827705 -1.69654748629 -6.04307005921 34.7097031355 -13.2732005292 -0.402908990477 2.60159002655 -4.00173995971 0.259959000843 10.0045008038 -11.1293006251 2.50609992653 -13.4408996026 -0.0700261009189 
1.87268 1.0296830376 0.025969 -3.56174002715 -0.219798995967 -93.5918009135 -1.50254994346 2.24554998092 2.28479005804 -0.324334014018 8.37681037548 23.321300138 -1.61266998852 -11.4416998174 -0.00547174024981 1.257249996 6.61787999674 0.623448995268 -2.94746013395 -1.0445099872 1.25351996566 78.5241986988 -12.8416802765 3.47904778064 8.20726032085 34.1119010737 9.5738992115 -71.0877004663 -6.19114856042 -1.69600459297 -6.03698991019 34.4631981933 -13.3547000539 -0.405775001886 2.56392985757 -3.99200010995 0.247836002035 10.0426004527 -11.1433998431 2.5093698796 -13.4494996645 -0.0700286022089 
1.87258 1.0296830376 0.0260225 -3.51563987879 -0.228701013632 -93.6033029521 -1.51229000666 2.20316993778 2.27321011263 -0.327484999061 8.37308023842 23.3356998843 -1.60523991664 -11.4377997794 -0.00547165979165 1.18084002942 6.64868030791 0.64393593424 -2.81727993002 -1.11021000371 1.25408004117 78.4736416385 -12.8345410213 3.45812349612 8.21335967977 33.9831998191 9.5883092031 -71.0931372969 -5.86522943558 -1.68946618094 -6.02777000858 34.1439995477 -13.4570999575 -0.414542003253 2.51446007808 -3.9815601658 0.240165005906 10.053100161 -11.13110038 2.52859985032 -13.4581005802 -0.0700311968804 
1.87246 1.0296830376 0.0260778 -3.48904995235 -0.232238011086 -93.6097028393 -1.52239996729 2.15889985324 2.26322992559 -0.319872006179 8.42038954371 23.3496010268 -1.61294991955 -11.452500054 -0.00547194994128 1.17010990896 6.63038009669 0.658344965346 -2.77824988123 -1.02997000856 1.26010992427 78.47513745 -12.9148964893 3.50873156933 8.17473069115 33.9817996304 9.62115985168 -71.1287977146 -5.83590273772 -1.78437165946 -6.05153010227 34.0797001468 -13.4465993954 -0.433967007892 2.52102004789 -3.99878035336 0.264030007031 10.0098001768 -11.0880992165 2.53787994297 -13.4660995855 -0.0700334980672 
1.87225 1.0296830376 0.0261617 -3.50382002299 -0.220555999707 -93.6116972546 -1.52091995067 2.16730995054 2.26945991189 -0.311207004083 8.46759981125 23.350599942 -1.63249002355 -11.4850006554 -0.00547257984948 1.25827004206 6.52481994996 0.655060978377 -2.87211012736 -0.758265990509 1.27979997226 78.5492723232 -12.8714667315 3.64247883955 8.1034499832 34.0746014106 9.70365999912 -71.1579489619 -6.04538976221 -1.96919647168 -6.08197993937 34.2574011785 -13.3599994269 -0.436957003242 2.57725000712 -4.01242963264 0.282230993746 9.96662996613 -11.0611003325 2.5347801043 -13.4790999968 -0.0700373000279 
1.87199 1.0296830376 0.0262825 -3.53212005804 -0.200046008846 -93.6378022376 -1.51095000892 2.22176000516 2.28802009718 -0.311754993362 8.46095062209 23.3603005181 -1.63815993433 -11.5139999311 -0.00547313972155 1.37240997361 6.37525033308 0.648886007119 -2.99731987456 -0.444815989656 1.30534989568 78.6150948563 -12.7441724959 3.79684196857 7.9916295412 34.4398970029 9.79922971353 -71.1569859053 -6.21159430481 -2.13532887041 -6.09668960552 34.397799132 -13.3019001303 -0.411286004051 2.62107997135 -3.98347987585 0.253417013639 9.96407974425 -11.0648996252 2.54523989868 -13.4909998939 -0.0700408018339 
1.87173 1.0296830376 0.0263911 -3.54082982989 -0.182909998033 -93.6913031093 -1.50208004779 2.27039009828 2.30759008326 -0.318946008619 8.42676979417 23.3904011618 -1.62545001951 -11.5344998901 -0.00547354034483 1.42492996618 6.27198000726 0.658669986301 -3.03566989265 -0.266908985127 1.32709999276 78.6087701011 -12.7842768054 3.88778252227 7.88648987799 34.9254005095 9.82911947512 -71.1588368865 -6.25744493782 -2.20629880475 -6.10089999025 34.4037004154 -13.2925000825 -0.386983977541 2.6413199563 -3.9487099441 0.217610000379 9.96041022512 -11.0482997042 2.56564999803 -13.4924000827 -0.0700412020403 
1.87143 1.0296830376 0.0264297 -3.5319998894 -0.173177005147 -93.7258023948 -1.49609007861 2.28347012398 2.32108995215 -0.321722000269 8.42619008186 23.413099588 -1.62264996211 -11.5552004859 -0.0054739501395 1.39642000953 6.32379979872 0.674721037573 -2.96690013299 -0.338657000749 1.32779998043 78.5480497194 -12.8881170251 3.83281614804 7.84365007774 34.9492993414 9.85202963714 -71.1935820588 -6.24767563287 -2.15173370414 -6.07339994111 34.3821989799 -13.3271001132 -0.392197012703 2.67386004472 -3.96436004193 0.235647983029 9.91413057085 -10.9915997426 2.55977987732 -13.49139946 -0.0700408952154 
1.87114 1.0296830376 0.0264105 -3.51806011363 -0.16813200331 -93.7110013749 -1.49002006815 2.27074996387 2.32624994663 -0.316298002975 8.45785996149 23.4037012477 -1.64315002785 -11.5716006239 -0.00547426988774 1.31740005692 6.5467901072 0.670096999504 -2.84141013459 -0.64513404547 1.29140008807 78.4746046952 -12.6763990901 3.63875510579 7.84052014355 34.3759015455 9.99045964237 -71.228067684 -6.10754405677 -1.96861804004 -5.97882017724 34.3015002948 -13.4572997405 -0.406212987767 2.71290994375 -3.99915985575 0.279267998987 9.85624044876 -10.9627003585 2.52840988568 -13.4995999558 -0.0700433031239 
